<mxfile host="app.diagrams.net" modified="2023-10-01T14:55:39.118Z" agent="Mozilla/5.0 (Windows NT 10.0; Win64; x64) AppleWebKit/537.36 (KHTML, like Gecko) Chrome/117.0.0.0 Safari/537.36" version="22.0.0" etag="XTTyh4lJ-6bq2gbFa5q5" type="github">
  <diagram name="Page-1" id="1zDlA2JxuWpXYPMDUVVL">
    <mxGraphModel>
      <root>
        <mxCell id="0" />
        <mxCell id="1" parent="0" />
      </root>
    </mxGraphModel>
  </diagram>
</mxfile>
